M48
METRIC,0000.00
T01C0.5
%
T01
X+000345Y+002906
X+000400Y+003426
X+000561Y+003923
X+000822Y+004376
X+001172Y+004766
X+001595Y+005071
X+002072Y+005284
X+002583Y+005392
X+003106Y+005392
X+003630Y+005284
X+004095Y+005071
X+004518Y+004764
X+004867Y+004375
X+005129Y+003923
X+005290Y+003426
X+005345Y+002906
X+005095Y+002906
X+000595Y+002906
X+000644Y+003374
X+000789Y+003821
X+001024Y+004228
X+001339Y+004578
X+001720Y+004855
X+002149Y+005046
X+002610Y+005144
X+003080Y+005144
X+003540Y+005046
X+003970Y+004855
X+004350Y+004578
X+004665Y+004228
X+004900Y+003821
X+005046Y+003374
X+001754Y+000629
X+002194Y+000427
X+003181Y+002812
X+003181Y+002558
X+003181Y+002304
X+003181Y+002050
X+003181Y+001796
X+003943Y+001796
X+003943Y+002050
X+003943Y+002304
X+003943Y+002558
X+003943Y+002812
X+002147Y+002811
X+002147Y+002557
X+002147Y+002303
X+002147Y+002049
X+002147Y+001795
X+002909Y+001795
X+002909Y+002049
X+002909Y+002303
X+002909Y+002557
X+002909Y+002811
X+001602Y+002268
X+001881Y+002259
X+001126Y+003179
X+002283Y+004535
X+003450Y+002849
X+003024Y+003275
X+002405Y+000670
X+002703Y+003683
X+002884Y+000255
X+000868Y+001400
X+003639Y+003164
X+002333Y+003411
X+003217Y+000256
X+005266Y+002185
X+004757Y+002226
X+004014Y+001419
X+004220Y+001307
X+002757Y+000871
X+002514Y+001779
X+001492Y+000852
X+002476Y+002544
X+002493Y+002131
X+002655Y+000402
X+000874Y+001178
X+000287Y+001895
X+002926Y+003933
X+003433Y+003427
X+001617Y+001872
X+001502Y+001158
X+001107Y+002755
X+001224Y+002999
X+002742Y+001214
X+003399Y+001936
X+003210Y+001568
T00
M30
