G04 DipTrace 3.1.0.0*
G04 Верхний.gbr*
%MOMM*%
G04 #@! TF.FileFunction,Copper,L1,Top*
G04 #@! TF.Part,Single*
%ADD13C,0.5*%
G04 #@! TA.AperFunction,Conductor*
%ADD14C,0.4*%
G04 #@! TA.AperFunction,ComponentPad*
%ADD16C,1.8*%
%ADD17C,3.0*%
%ADD18R,1.8X1.6*%
%ADD19R,1.6X1.8*%
%ADD20R,0.6X2.0*%
G04 #@! TA.AperFunction,ComponentPad*
%ADD21C,1.8*%
%ADD22C,1.7*%
%ADD23R,1.8X1.8*%
%ADD24O,2.5X1.5*%
%FSLAX35Y35*%
G04*
G71*
G90*
G75*
G01*
G04 Top*
%LPD*%
X626101Y1661906D2*
D13*
Y1193452D1*
X812967Y1006586D1*
X1299787D1*
Y1301192D1*
X1388101Y1389506D1*
Y1661906D1*
X1299787Y1006586D2*
X1754361D1*
X1844557D1*
Y1502656D1*
X1907397Y1565496D1*
X1754361Y628746D2*
Y1006586D1*
X1125967Y3179452D2*
X1106691Y3198729D1*
Y3892572D1*
X1729834Y4515716D1*
X2302027D1*
X2282597Y4535146D1*
X3450197Y2848976D2*
X3023744Y3275429D1*
X3195584Y596482D2*
Y747239D1*
X3210294Y761949D1*
X3231241Y782896D1*
X3911227D1*
X3952117Y742006D1*
Y601949D1*
X3957584Y596482D1*
Y659849D1*
X4407761Y1110026D1*
Y2138422D1*
X4116784Y2429399D1*
D14*
X3736797D1*
D13*
X3665881Y2500316D1*
Y2633292D1*
X3450197Y2848976D1*
X2405121Y669622D2*
X2860164D1*
X2952491Y761949D1*
X3210294D1*
X753101Y1661906D2*
Y1875699D1*
X549274D1*
X377814Y2047159D1*
Y2544539D1*
X197257Y2725096D1*
Y3006552D1*
X279321Y3088616D1*
X751431D1*
X969134Y3306319D1*
Y3901016D1*
X1721907Y4653789D1*
X2070307D1*
X2176521Y4760002D1*
X2217204D1*
X2222517Y4754689D1*
X2378021D1*
X2601907Y4530802D1*
Y3784389D1*
X2702984Y3683312D1*
X2883744Y255192D2*
X3034881Y406329D1*
X3219257D1*
X3313301Y500372D1*
Y587199D1*
X3322584Y596482D1*
X880101Y1661906D2*
X868307D1*
Y1399802D1*
X3638747Y3163522D2*
X3440287D1*
X3172587Y3431222D1*
X2312764D1*
X2333377Y3410609D1*
X3217274Y255632D2*
X3449584Y487942D1*
Y596482D1*
X499101Y2201906D2*
Y2735716D1*
X356574D1*
Y2917776D1*
X344701Y2905902D1*
X1007101Y1661906D2*
Y1851689D1*
X870821Y1987969D1*
X596267D1*
X487811Y2096426D1*
Y2190616D1*
X499101Y2201906D1*
X3576584Y596482D2*
Y394479D1*
X3283251Y101146D1*
X2519174D1*
X2193544Y426776D1*
Y1086396D1*
X2555984Y1448836D1*
X2999941D1*
X3070041Y1378736D1*
Y1137939D1*
X3068584Y1136482D1*
X2193544Y426776D2*
Y1079966D1*
X2658157Y1544579D1*
X2930987D1*
X3045081Y1658672D1*
D14*
Y2954562D1*
D13*
X2808684Y3190959D1*
X2225394D1*
X2163551Y3252802D1*
Y3571289D1*
X2206577Y3614316D1*
X2429477D1*
X2520844Y3522949D1*
X2839474D1*
X2902234Y3585709D1*
Y3754679D1*
X2686381Y3970536D1*
Y4931422D1*
X2912171Y5157212D1*
Y5198372D1*
X3106001Y5392202D1*
X3704927Y605646D2*
Y358636D1*
X3732941Y330622D1*
X4073621D1*
X5115087Y1372089D1*
Y2033942D1*
X5266091Y2184946D1*
X1602331Y2267829D2*
Y2150562D1*
X1907397Y1845496D1*
X4757437Y2225789D2*
X4623897D1*
Y1162226D1*
X4122037Y660366D1*
Y531766D1*
X4016521Y426249D1*
X3830584D1*
Y596482D1*
X4013921Y1419039D2*
Y1192819D1*
X3957584Y1136482D1*
X4220397Y1306869D2*
X4170917D1*
Y1508686D1*
X4100971Y1578632D1*
X3830584D1*
Y1136482D1*
X2757261Y871159D2*
X3615051D1*
X3711481Y967589D1*
Y1128586D1*
X3703584Y1136482D1*
X2909267Y2811129D2*
X2742881D1*
Y2007602D1*
X2513924Y1778646D1*
X1492234Y851899D2*
Y831339D1*
X1085631D1*
X1120814Y866522D1*
X1884374Y3364862D2*
Y2501156D1*
X1957274Y2428256D1*
D14*
X2475637D1*
D13*
Y2543906D1*
X1583911Y3798639D2*
X1739481D1*
Y3608856D1*
X1952887D1*
X2062607Y3499136D1*
Y3152416D1*
X2233951Y2981072D1*
X2611214D1*
Y2169642D1*
X2493044D1*
Y2131352D1*
X3068584Y596482D2*
X2874197Y402096D1*
X2654657D1*
X873537Y1178156D2*
X1138187Y1442802D1*
Y1657819D1*
X1134101Y1661906D1*
X499101D2*
X519261D1*
X286664Y1894502D1*
X2926374Y3933306D2*
X3432704Y3426976D1*
X1120814Y1146522D2*
Y1262419D1*
X1253651Y1395252D1*
Y1654456D1*
X1261101Y1661906D1*
X1604374Y3364862D2*
Y2839369D1*
X1388101Y2623099D1*
Y2201906D1*
X1261101D2*
Y2682702D1*
X1422197Y2843796D1*
Y3224779D1*
X1290021D1*
Y3784746D1*
X1303911Y3798639D1*
X1134101Y2201906D2*
Y2056512D1*
X1207901Y1982712D1*
X1505821D1*
X1616811Y1871722D1*
X1501711Y1158466D2*
Y1764842D1*
X1388987Y1877566D1*
X1150631D1*
X1007101Y2021096D1*
Y2201906D1*
X880101D2*
Y2507626D1*
X1127644Y2755169D1*
X1107064D1*
X753101Y2201906D2*
Y2681709D1*
X1063914Y2992522D1*
X1224327D1*
Y2999396D1*
X2741797Y1214429D2*
Y1166829D1*
X2933967Y974659D1*
X3548907D1*
X3570114Y995862D1*
Y1130012D1*
X3576584Y1136482D1*
X3399087Y1935946D2*
X3346327D1*
Y1657882D1*
X3471157Y1533052D1*
Y1158056D1*
X3449584Y1136482D1*
X3209631Y1568396D2*
X3230834D1*
X3322724Y1476506D1*
Y1136622D1*
X3322584Y1136482D1*
D16*
X344701Y2905902D3*
X399701Y3425902D3*
X560701Y3922902D3*
X822201Y4375902D3*
X1171701Y4765902D3*
X1594701Y5070902D3*
X2072201Y5283502D3*
X2583401Y5392202D3*
X3106001D3*
X3629701Y5283502D3*
X4094701Y5071002D3*
X4517501Y4763802D3*
X4867201Y4375402D3*
X5128601Y3922702D3*
X5290101Y3425702D3*
X5344701Y2905902D3*
X5094701D3*
X594701D3*
X643901Y3373702D3*
X789201Y3821102D3*
X1024401Y4228402D3*
X1339201Y4578002D3*
X1719701Y4854502D3*
X2149401Y5045802D3*
X2609501Y5143602D3*
X3079901D3*
X3540001Y5045902D3*
X3969701Y4854502D3*
X4350201Y4578002D3*
X4665001Y4228402D3*
X4900201Y3821102D3*
X5045501Y3373702D3*
D17*
X1754361Y628746D3*
X2193544Y426776D3*
D18*
X1120814Y1146522D3*
Y866522D3*
D19*
X1604374Y3364862D3*
X1884374D3*
X1303911Y3798639D3*
X1583911D3*
D20*
X3957584Y1136482D3*
X3830584D3*
X3703584D3*
X3576584D3*
X3449584D3*
X3322584D3*
X3195584D3*
X3068584D3*
Y596482D3*
X3195584D3*
X3322584D3*
X3449584D3*
X3576584D3*
X3703584D3*
X3830584D3*
X3957584D3*
X1388101Y2201906D3*
X1261101D3*
X1134101D3*
X1007101D3*
X880101D3*
X753101D3*
X626101D3*
X499101D3*
Y1661906D3*
X626101D3*
X753101D3*
X880101D3*
X1007101D3*
X1134101D3*
X1261101D3*
X1388101D3*
D18*
X1907397Y1845496D3*
Y1565496D3*
D21*
X3181394Y2811652D3*
Y2557652D3*
Y2303652D3*
Y2049652D3*
Y1795652D3*
X3943394D3*
Y2049652D3*
D22*
Y2303652D3*
Y2557652D3*
D21*
Y2811652D3*
X2147267Y2811129D3*
D22*
Y2557129D3*
Y2303129D3*
D21*
Y2049129D3*
Y1795129D3*
D22*
X2909267D3*
Y2049129D3*
D21*
Y2303129D3*
Y2557129D3*
Y2811129D3*
D23*
X1602331Y2267829D3*
D24*
X1881364Y2259049D3*
G04 Top Clear*
%LPC*%
D13*
X344701Y2905902D3*
X399701Y3425902D3*
X560701Y3922902D3*
X822201Y4375902D3*
X1171701Y4765902D3*
X1594701Y5070902D3*
X2072201Y5283502D3*
X2583401Y5392202D3*
X3106001D3*
X3629701Y5283502D3*
X4094701Y5071002D3*
X4517501Y4763802D3*
X4867201Y4375402D3*
X5128601Y3922702D3*
X5290101Y3425702D3*
X5344701Y2905902D3*
X5094701D3*
X594701D3*
X643901Y3373702D3*
X789201Y3821102D3*
X1024401Y4228402D3*
X1339201Y4578002D3*
X1719701Y4854502D3*
X2149401Y5045802D3*
X2609501Y5143602D3*
X3079901D3*
X3540001Y5045902D3*
X3969701Y4854502D3*
X4350201Y4578002D3*
X4665001Y4228402D3*
X4900201Y3821102D3*
X5045501Y3373702D3*
X1754361Y628746D3*
X2193544Y426776D3*
X3181394Y2811652D3*
Y2557652D3*
Y2303652D3*
Y2049652D3*
Y1795652D3*
X3943394D3*
Y2049652D3*
Y2303652D3*
Y2557652D3*
Y2811652D3*
X2147267Y2811129D3*
Y2557129D3*
Y2303129D3*
Y2049129D3*
Y1795129D3*
X2909267D3*
Y2049129D3*
Y2303129D3*
Y2557129D3*
Y2811129D3*
X1602331Y2267829D3*
X1881364Y2259049D3*
M02*
